<svg width="24" height="25" viewBox="0 0 24 25" fill="none" xmlns="http://www.w3.org/2000/svg">
<path opacity="0.4" d="M14.4183 6.46632C13.9422 6.37838 13.505 6.68217 13.4144 7.14685C13.3238 7.61154 13.6285 8.06522 14.0916 8.15616C15.4859 8.42797 16.5624 9.50723 16.8353 10.9063V10.9073C16.913 11.31 17.2675 11.6028 17.6759 11.6028C17.7306 11.6028 17.7854 11.5978 17.8412 11.5878C18.3043 11.4949 18.609 11.0422 18.5184 10.5765C18.1111 8.48693 16.5027 6.87304 14.4183 6.46632Z" fill="black"/>
<path opacity="0.4" d="M14.3598 2.98449C14.1367 2.95251 13.9126 3.01847 13.7343 3.16037C13.5511 3.30427 13.4366 3.51213 13.4117 3.74497C13.3589 4.21565 13.6985 4.64135 14.1685 4.69432C17.4102 5.05607 19.9298 7.58134 20.2943 10.8331C20.3431 11.2688 20.7086 11.5976 21.1448 11.5976C21.1777 11.5976 21.2096 11.5956 21.2424 11.5916C21.4705 11.5666 21.6737 11.4537 21.8171 11.2738C21.9595 11.0939 22.0242 10.8701 21.9983 10.6412C21.5442 6.58402 18.4041 3.43518 14.3598 2.98449Z" fill="black"/>
<path fill-rule="evenodd" clip-rule="evenodd" d="M11.0317 13.9489C15.0208 17.9369 15.9258 13.3233 18.4656 15.8614C20.9143 18.3093 22.3216 18.7998 19.2192 21.9013C18.8306 22.2136 16.3616 25.9708 7.6846 17.2962C-0.993478 8.62056 2.76158 6.14901 3.07397 5.76051C6.18387 2.65041 6.66586 4.06595 9.11449 6.51389C11.6544 9.05306 7.04266 9.96098 11.0317 13.9489Z" fill="black"/>
</svg>
