<svg width="24" height="25" viewBox="0 0 24 25" fill="none" xmlns="http://www.w3.org/2000/svg">
<path opacity="0.4" d="M22 16.9166C22 19.7066 19.76 21.9666 16.97 21.9766H16.96H7.05C4.27 21.9766 2 19.7266 2 16.9366V16.9266C2 16.9266 2.006 12.5006 2.014 10.2746C2.015 9.85656 2.495 9.62256 2.822 9.88256C5.198 11.7676 9.447 15.2046 9.5 15.2496C10.21 15.8186 11.11 16.1396 12.03 16.1396C12.95 16.1396 13.85 15.8186 14.56 15.2386C14.613 15.2036 18.767 11.8696 21.179 9.95356C21.507 9.69256 21.989 9.92656 21.99 10.3436C22 12.5526 22 16.9166 22 16.9166Z" fill="black"/>
<path d="M21.473 6.65056C20.607 5.01856 18.903 3.97656 17.027 3.97656H7.04695C5.17095 3.97656 3.46695 5.01856 2.60095 6.65056C2.40695 7.01556 2.49895 7.47056 2.82195 7.72856L10.247 13.6676C10.767 14.0876 11.397 14.2966 12.027 14.2966C12.031 14.2966 12.034 14.2966 12.037 14.2966C12.04 14.2966 12.044 14.2966 12.047 14.2966C12.677 14.2966 13.307 14.0876 13.827 13.6676L21.252 7.72856C21.575 7.47056 21.667 7.01556 21.473 6.65056Z" fill="black"/>
</svg>
